<svg width="500" height="200" xmlns="http://www.w3.org/2000/svg">

 <g>
  <title>background</title>
  <rect fill="none" id="canvas_background" height="202" width="502" y="-1" x="-1"/>
 </g>
 <g>
  <title>Layer 1</title>
  <rect stroke="null" id="svg_1" fill="#D1C584" height="71.00001" width="159.99999" y="106" x="35"/>
  <path stroke="null" id="svg_2" fill="#30995B" d="m168.78879,99.89099c0.69501,-0.97526 1.27253,-2.02393 1.71445,-3.12987c1.07801,0.18417 2.18974,0.28416 3.32774,0.28416c9.706,0 17.57403,-7.01444 17.57403,-15.66708c0,-7.32708 -5.64279,-13.47766 -13.26483,-15.19084c2.17909,-2.60933 3.46937,-5.84331 3.46937,-9.34626c0,-8.65264 -7.86838,-15.66708 -17.57439,-15.66708c-3.95531,0 -7.605,1.16544 -10.54193,3.13145c-3.71216,-2.93526 -8.59463,-4.7206 -13.9467,-4.7206c-1.26294,0 -2.49785,0.10474 -3.69938,0.29492c-2.41727,-9.49657 -11.93586,-16.83378 -23.3155,-16.83378c-10.40811,0 -19.25902,5.93002 -22.54417,14.20546c-1.54159,-0.27815 -3.13606,-0.42529 -4.76959,-0.42529c-11.10277,0 -20.43855,6.74579 -23.13092,15.8908l0,46.58355l106.7018,0.59047z"/>
  <g stroke="null" id="svg_3">
   <polygon stroke="null" id="svg_4" fill="#ACD670" points="147.43133544921875,56.0599365234375 143.93243408203125,71.47586059570312 146.8607177734375,96 156.130859375,57.527984619140625 "/>
   <polygon stroke="null" id="svg_5" fill="#ACD670" points="163.3157958984375,69.68350219726562 144.58477783203125,95.12823486328125 156.130859375,95.29904174804688 173.28399658203125,75.12582397460938 "/>
   <rect stroke="null" id="svg_6" fill="#ACD670" height="32.73012" width="8.84752" y="63.26988" x="134.9769"/>
   <rect stroke="null" id="svg_7" fill="#ACD670" height="23.72366" width="8.20544" y="27" x="50.16"/>
  </g>
  <path stroke="null" id="svg_8" fill="#EF7159" d="m73.68119,103.00068c1.76724,-6.54102 3.31914,-12.70056 4.44292,-17.79935c1.17049,-5.31094 1.87589,-9.47124 1.87589,-11.71368c0,-12.39851 -10.74519,-22.44965 -24,-22.44965s-24,10.05113 -24,22.44965c0,4.39566 2.71103,16.15935 6.31881,29.51336l35.36238,0l0,-0.00033z"/>
  <path stroke="null" id="svg_9" fill="#ACD670" d="m112,103c0,-13.25475 -9.17823,-24 -20.5,-24s-20.5,10.74525 -20.5,24l41,0z"/>
  <path stroke="null" id="svg_10" fill="#FFC943" d="m133.617,90.9679c0,-14.86128 -11.26811,-26.9089 -25.16784,-26.9089c-11.35699,0 -20.95655,8.0424 -24.08916,19.09102c0,0 26.76325,-1.25883 30.9415,20.08497c7.06194,-15.37507 18.3155,-12.2671 18.3155,-12.2671z"/>
  <path stroke="null" id="svg_11" fill="#A766B2" d="m138.13594,104.12701c0.55547,-1.56587 0.86406,-3.26935 0.86406,-5.05362c0,-7.64208 -5.59648,-13.83739 -12.5,-13.83739s-12.5,6.19531 -12.5,13.83739c0,1.78428 0.3082,3.48775 0.86406,5.05362l23.27188,0z"/>
  <path stroke="null" id="svg_15" d="m186.22258,162.437l-0.06523,-0.04908c-3.0876,-2.33878 -7.48684,-1.73305 -9.82674,1.35307c-2.3399,3.08543 -1.73388,7.48326 1.35372,9.82205l0.06523,0.04908c1.26745,0.95977 2.75514,1.42388 4.2309,1.42388c2.12036,0 4.21617,-0.95697 5.59584,-2.77625c2.3399,-3.08613 1.73318,-7.48396 -1.35372,-9.82275z"/>
  <path stroke="null" id="svg_17" d="m45.68442,120.56308l0.06523,0.04907c1.26745,0.95975 2.75514,1.42385 4.2309,1.42385c2.12036,0 4.21617,-0.95695 5.59584,-2.77619c2.3399,-3.08536 1.73388,-7.48311 -1.35372,-9.82184l-0.06523,-0.04907c-3.0876,-2.33873 -7.48684,-1.73302 -9.82674,1.35304s-1.73318,7.4824 1.35372,9.82114z"/>
  <path stroke="null" id="svg_21" d="m194.71876,98.79688l-13.62834,0c5.86425,-3.29281 9.82439,-9.46716 9.82439,-16.53165c0,-7.33388 -4.26234,-13.86216 -10.75594,-17.0387c1.12022,-2.43117 1.70133,-5.07151 1.70133,-7.79897c0,-10.51073 -8.75963,-19.06212 -19.52705,-19.06212c-3.39478,0 -6.65503,0.83602 -9.56058,2.43598c-3.81216,-2.62272 -8.3708,-4.04459 -13.07709,-4.04459c-0.31927,0 -0.63591,0.01089 -0.95222,0.0237c-3.46664,-9.86498 -13.1332,-16.76516 -24.02039,-16.76516c-9.8175,0 -18.70116,5.5507 -22.88672,14.05595c-0.7852,-0.07111 -1.57402,-0.10698 -2.36217,-0.10698c-10.31789,0 -19.48177,6.08241 -23.39433,15.15206c-0.69431,-0.20692 -1.40077,-0.38758 -2.11772,-0.54421c0.37603,-4.09391 1.70625,-7.23234 3.97589,-9.34255c1.97695,-1.83827 3.96277,-2.21913 4.04644,-2.2345l-0.04561,0.00737l-0.00066,-0.00352c0.69366,-0.09962 1.35023,-0.41192 1.84866,-0.90072c0.60998,-0.59578 0.96141,-1.41898 0.96141,-2.26141c0,-0.84563 -0.35109,-1.66883 -0.96141,-2.26781c-0.61031,-0.59578 -1.45688,-0.93852 -2.31984,-0.93852c-0.18408,0 -0.36684,0.0189 -0.54731,0.04901l-0.00098,-0.00545c-1.94841,0.29949 -4.61311,1.36549 -7.07077,3.53145l0,-11.00241c0,-1.76909 -1.46934,-3.20313 -3.28125,-3.20313l-7.875,0c-1.81191,0 -3.28125,1.43404 -3.28125,3.20313l0,11.9768c-3.77475,-4.51609 -7.84973,-7.1561 -8.16572,-7.35758c-1.51561,-0.9651 -3.54277,-0.54805 -4.53403,0.92923c-0.99159,1.4776 -0.56798,3.46194 0.94336,4.4328c0.10861,0.06951 10.03603,6.55904 11.51095,15.89455c-11.10342,3.25598 -19.1648,12.78239 -19.1648,24.00134c0,4.66119 2.72311,15.85355 5.39569,25.71661l-2.11444,0c-1.81191,0 -3.28125,1.43404 -3.28125,3.20313l0,78.79688c0,1.76909 1.46934,3.20313 3.28125,3.20313l161.43751,0c1.81191,0 3.28125,-1.43404 3.28125,-3.20313l0,-78.79688c0,-1.76909 -1.46934,-3.20313 -3.28125,-3.20313zm-105.24478,-58.42628c1.2623,0 2.52623,0.12332 3.75769,0.36676c1.60256,0.31647 3.19889,-0.56599 3.74423,-2.07082c2.65552,-7.32395 9.78731,-12.24491 17.74697,-12.24491c7.75688,0 14.67933,4.72109 17.48906,11.57673c-8.86298,3.02727 -15.23977,11.26795 -15.23977,20.94011c0,1.76909 1.46934,3.20313 3.28125,3.20313s3.28125,-1.43404 3.28125,-3.20313c0,-8.69873 7.24959,-15.77539 16.16048,-15.77539c3.95161,0 7.7572,1.41034 10.71492,3.97155c1.16648,1.00995 2.90063,1.07881 4.1475,0.16528c2.25652,-1.65409 4.94517,-2.52823 7.77492,-2.52823c7.14853,0 12.96455,5.67754 12.96455,12.65587c0,2.74348 -0.8843,5.3537 -2.55806,7.54784c-0.65428,0.85812 -0.82688,1.97889 -0.45905,2.98691s1.2262,1.77037 2.28933,2.03206c5.75991,1.4177 9.78272,6.46359 9.78272,12.27085c0,6.97833 -5.81602,12.65587 -12.96455,12.65587c-0.81441,0 -1.64128,-0.07752 -2.45798,-0.2303c-1.59042,-0.29853 -3.16509,0.58169 -3.70913,2.0705c-0.25692,0.70373 -0.58209,1.38503 -0.96436,2.03559l-4.14225,0l13.43639,-18.80234c0.50498,-0.70661 0.69694,-1.58234 0.53255,-2.42893s-0.67134,-1.59291 -1.40602,-2.07018l-9.56648,-6.2147c-0.74517,-0.48431 -1.6613,-0.65055 -2.53444,-0.45933c-0.87347,0.19091 -1.62947,0.72166 -2.09213,1.46991l-4.78373,7.73234l3.91584,-19.33695c0.34913,-1.72616 -0.79275,-3.40428 -2.55806,-3.75855l-8.34914,-1.6762c-0.86264,-0.17361 -1.76105,-0.00064 -2.49211,0.47919s-1.23375,1.22648 -1.39486,2.07178l-1.07133,5.61668l-7.65745,0c-1.81191,0 -3.28125,1.43404 -3.28125,3.20313l0,18.43206c-2.18072,-10.89991 -12.03333,-19.15277 -23.82745,-19.15277c-5.31464,0 -10.36252,1.64609 -14.5973,4.76048c-3.49223,2.56795 -6.23503,6.0632 -7.8855,9.99279c0.41803,-2.40555 0.62409,-4.25055 0.62409,-5.57472c0,-4.34376 -1.20848,-8.43447 -3.33375,-12.00595c1.72397,-4.57887 6.20583,-7.68942 11.27536,-7.68942c0.80555,0 1.61273,0.07912 2.39958,0.23479c1.60355,0.31839 3.20217,-0.56663 3.74653,-2.07306c0.70416,-1.94686 1.92938,-3.6884 3.54375,-5.03627c1.37681,-1.14992 1.53825,-3.17205 0.36028,-4.51641c-1.17764,-1.34435 -3.24877,-1.50163 -4.62656,-0.35202c-1.80272,1.50547 -3.29109,3.33061 -4.38802,5.36491c-0.34486,-0.0189 -0.69038,-0.02819 -1.03523,-0.02819c-6.531,0 -12.43069,3.33766 -15.75919,8.54338c-1.55859,-1.46479 -3.30816,-2.75725 -5.21423,-3.84311c2.88094,-6.76564 9.69938,-11.30863 17.38013,-11.30863zm60.49575,56.07359l12.35916,-19.97629l3.92011,2.5468l-14.13628,19.78218l-2.61942,0l0.47644,-2.3527zm-4.10452,-12.76702l0,-8.89412c0.01739,-0.06727 0.03642,-0.13389 0.04955,-0.20308l2.74608,-14.39613l1.88508,0.37861l-4.6807,23.11471zm-8.51484,9.56325c0.01411,-0.1214 0.02363,-0.2444 0.02363,-0.36932l0,-25.04555l1.92905,0l0,30.97134l-1.03556,0c0.00886,-0.20052 0.01378,-0.40135 0.01378,-0.60283c0,-1.74602 -0.33206,-3.41549 -0.93089,-4.95363zm-45.00661,-14.94354c-0.09713,0 -0.19261,0.00609 -0.28973,0.00705c3.20808,-4.86234 8.82952,-7.99596 14.92969,-7.99596c8.66972,0 15.90028,6.11188 17.42016,14.15269c-4.54027,0.03139 -8.56373,2.26173 -11.05355,5.67402c-4.20689,-7.06994 -12.04448,-11.83779 -21.00656,-11.83779zm17.40933,20.5l-34.30219,0l-0.51614,0c1.54383,-8.01166 8.76061,-14.09375 17.40933,-14.09375s15.86517,6.08209 17.409,14.09375zm14.74692,-7.93222c3.98048,0 7.21875,3.28801 7.21875,7.32939c0,0.20212 -0.00984,0.40295 -0.02592,0.60283l-14.38598,0c-0.01608,-0.19988 -0.02592,-0.40071 -0.02592,-0.60283c0.00033,-4.04138 3.23859,-7.32939 7.21908,-7.32939zm-68.52727,-64.45841l1.3125,0l0,21.4792c-0.44002,0.00416 -0.87773,0.0157 -1.3125,0.03844l0,-21.51763zm-19.21434,44.14227c0.20475,0.03908 0.41606,0.06086 0.6323,0.06086l16.22184,0c1.81191,0 3.28125,-1.43404 3.28125,-3.20313s-1.46934,-3.20313 -3.28125,-3.20313l-14.55431,0c3.54703,-5.89855 10.51017,-9.91784 18.50428,-9.91784c11.57953,0 21,8.43127 21,18.79498c0,0.8357 -0.13683,2.37768 -0.65822,5.21661l-13.0328,0c-1.81191,0 -3.28125,1.43404 -3.28125,3.20313s1.46934,3.20313 3.28125,3.20313l10.89572,0c-3.98114,3.63843 -6.70753,8.56516 -7.47666,14.09375l-26.10366,0c-3.58477,-13.06427 -5.62439,-22.37319 -5.62439,-25.71661c0,-0.85876 0.07055,-1.70278 0.19589,-2.53175zm154.67911,54.51399l-28.875,0c-1.81191,0 -3.28125,1.43404 -3.28125,3.20313s1.46934,3.20313 3.28125,3.20313l28.875,0l0,19.85938l-103.48866,0c-1.81191,0 -3.28125,1.43404 -3.28125,3.20313s1.46934,3.20313 3.28125,3.20313l103.48866,0l0,19.85938l-154.87501,0l0,-19.85938l28.875,0c1.81191,0 3.28125,-1.43404 3.28125,-3.20313s-1.46934,-3.20313 -3.28125,-3.20313l-28.875,0l0,-19.85938l103.48866,0c1.81191,0 3.28125,-1.43404 3.28125,-3.20313s-1.46934,-3.20313 -3.28125,-3.20313l-103.48866,0l0,-19.85938l3.11161,0l151.7634,0l0,19.85938z"/>
  <g id="svg_23"/>
  <g id="svg_24"/>
  <g id="svg_25"/>
  <g id="svg_26"/>
  <g id="svg_27"/>
  <g id="svg_28"/>
  <g id="svg_29"/>
  <g id="svg_30"/>
  <g id="svg_31"/>
  <g id="svg_32"/>
  <g id="svg_33"/>
  <g id="svg_34"/>
  <g id="svg_35"/>
  <g id="svg_36"/>
  <g id="svg_37"/>
  <!-- Created with Method Draw - http://github.com/duopixel/Method-Draw/ -->
  <g stroke="null" id="svg_52">
   <g stroke="null" transform="matrix(1.0872029990001344,0,0,1.52391190121596,135.60626500728978,-29.027422323850203) " id="svg_49">
    <title stroke="null" transform="translate(24.834367752075195,11.155500411987305) translate(-0.9197914004325867,-175.86318969726562) translate(-46.90936279296875,19.029972076416016) translate(-100.25726318359375,1.3124117851257324) translate(-242.82493591308594,-3.281029462814331) translate(0.9197914004325867,6.562058925628662) translate(111.29476165771484,-10.49929428100586) translate(0.9197914004325867,0.6562058925628662) translate(-5.518748760223389,-1.3124117851257324) translate(16.487411499023438,-2.6163687705993652) translate(1.3739509582519531,20.930950164794922) translate(-1.074168086051941,-1.4210854715202004e-14) translate(31.047733306884766,-76.93482971191406) translate(276.2250061035156,0) translate(0,263.9187316894531) ">background</title>
    <rect stroke="null" x="64.59854" y="52.05871" width="256" height="79" id="svg_47" fill="none"/>
    <g stroke="null" id="svg_46" display="none">
     <rect stroke="null" id="svg_50" width="1280" height="960" x="65.59854" y="53.05871" stroke-width="0" fill="url(#gridpattern)"/>
    </g>
   </g>
   <g stroke="null" transform="matrix(1.0872029990001344,0,0,1.52391190121596,135.60626500728978,-29.027422323850203) " id="svg_51">
    <title stroke="null" transform="translate(24.834367752075195,11.155500411987305) translate(-0.9197914004325867,-175.86318969726562) translate(-46.90936279296875,19.029972076416016) translate(-100.25726318359375,1.3124117851257324) translate(-242.82493591308594,-3.281029462814331) translate(0.9197914004325867,6.562058925628662) translate(111.29476165771484,-10.49929428100586) translate(0.9197914004325867,0.6562058925628662) translate(-5.518748760223389,-1.3124117851257324) translate(16.487411499023438,-2.6163687705993652) translate(1.3739509582519531,20.930950164794922) translate(-1.074168086051941,-1.4210854715202004e-14) translate(31.047733306884766,-76.93482971191406) translate(276.2250061035156,0) translate(0,263.9187316894531) ">Layer 1</title>
    <text stroke="#000" fill="#083734" stroke-width="0" x="122.10521" y="63.3633" id="svg_45" font-size="24" font-family="Arvo, sans-serif" text-anchor="start" xml:space="preserve" font-weight="bold" transform="matrix(1.6742587151674042,0,0,2.4427323332332658,-27.14288295585099,-42.06114283199044) ">MART</text>
    <text stroke="#000" fill="#000000" stroke-width="0" x="154.19891" y="191.5148" id="svg_44" font-size="24" font-family="Arvo, sans-serif" text-anchor="start" xml:space="preserve" transform="matrix(1.96620948259141,0,0,2.0327777485908136,-237.37478514094866,-280.2190565077627) " font-weight="bold">VEG</text>
   </g>
  </g>
 </g>
</svg>